<mxfile host="app.diagrams.net" agent="Mozilla/5.0 (X11; Linux x86_64) AppleWebKit/537.36 (KHTML, like Gecko) Chrome/130.0.0.0 Safari/537.36" version="25.0.1">
  <diagram id="dNZ_Tn0Hp9u-YdFpUYYD" name="Страница — 1">
    <mxGraphModel dx="1920" dy="1276" grid="1" gridSize="10" guides="1" tooltips="1" connect="1" arrows="1" fold="1" page="0" pageScale="1" pageWidth="827" pageHeight="1169" math="0" shadow="0">
      <root>
        <mxCell id="0" />
        <mxCell id="1" parent="0" />
        <mxCell id="vmZU5TFpBcDoDS9-gK7y-69" style="edgeStyle=orthogonalEdgeStyle;rounded=1;orthogonalLoop=1;jettySize=auto;html=1;entryX=1;entryY=0.5;entryDx=0;entryDy=0;exitX=0.69;exitY=-0.006;exitDx=0;exitDy=0;exitPerimeter=0;" parent="1" source="vmZU5TFpBcDoDS9-gK7y-49" target="vmZU5TFpBcDoDS9-gK7y-68" edge="1">
          <mxGeometry relative="1" as="geometry">
            <mxPoint x="200" y="50" as="targetPoint" />
          </mxGeometry>
        </mxCell>
        <mxCell id="vmZU5TFpBcDoDS9-gK7y-70" value="&lt;span style=&quot;font-size: 15px; text-wrap-mode: wrap;&quot;&gt;ПОиО&lt;/span&gt;" style="edgeLabel;html=1;align=center;verticalAlign=middle;resizable=0;points=[];rounded=1;" parent="vmZU5TFpBcDoDS9-gK7y-69" vertex="1" connectable="0">
          <mxGeometry x="0.1646" y="-3" relative="1" as="geometry">
            <mxPoint y="51" as="offset" />
          </mxGeometry>
        </mxCell>
        <mxCell id="vmZU5TFpBcDoDS9-gK7y-2" value="&lt;span style=&quot;font-size: 14px; background-color: rgb(251, 251, 251);&quot;&gt;Поставщики&lt;/span&gt;" style="shape=umlActor;verticalLabelPosition=bottom;verticalAlign=top;html=1;outlineConnect=0;strokeWidth=2;rounded=1;" parent="1" vertex="1">
          <mxGeometry y="160" width="70" height="120" as="geometry" />
        </mxCell>
        <mxCell id="vmZU5TFpBcDoDS9-gK7y-3" value="&lt;span style=&quot;font-size: 14px;&quot;&gt;Служба поддержки&lt;/span&gt;" style="shape=umlActor;verticalLabelPosition=bottom;verticalAlign=top;html=1;outlineConnect=0;strokeWidth=2;rounded=1;" parent="1" vertex="1">
          <mxGeometry x="680" y="-240" width="70" height="120" as="geometry" />
        </mxCell>
        <mxCell id="vmZU5TFpBcDoDS9-gK7y-5" value="&lt;font style=&quot;font-size: 15px;&quot;&gt;Составление договора на требуемое ПОиО&lt;/font&gt;" style="swimlane;fontStyle=0;childLayout=stackLayout;horizontal=1;startSize=50;horizontalStack=0;resizeParent=1;resizeParentMax=0;resizeLast=0;collapsible=1;marginBottom=0;whiteSpace=wrap;html=1;rounded=1;" parent="1" vertex="1">
          <mxGeometry x="890" y="280" width="190" height="220" as="geometry">
            <mxRectangle x="240" y="60" width="210" height="50" as="alternateBounds" />
          </mxGeometry>
        </mxCell>
        <mxCell id="vmZU5TFpBcDoDS9-gK7y-6" value="&lt;div style=&quot;text-align: center;&quot;&gt;&lt;span style=&quot;font-size: 15px; background-color: initial;&quot;&gt;И: &lt;/span&gt;&lt;span style=&quot;background-color: initial; font-size: 14px; text-wrap-mode: nowrap;&quot;&gt;бухгалтерия&lt;/span&gt;&lt;/div&gt;" style="text;strokeColor=default;fillColor=none;align=left;verticalAlign=middle;spacingLeft=4;spacingRight=4;overflow=hidden;points=[[0,0.5],[1,0.5]];portConstraint=eastwest;rotatable=0;whiteSpace=wrap;html=1;rounded=1;" parent="vmZU5TFpBcDoDS9-gK7y-5" vertex="1">
          <mxGeometry y="50" width="190" height="70" as="geometry" />
        </mxCell>
        <mxCell id="vmZU5TFpBcDoDS9-gK7y-7" value="&lt;p&gt;&lt;font style=&quot;font-size: 15px;&quot; face=&quot;Helvetica&quot;&gt;СД: текстовые редакторы&lt;/font&gt;&lt;/p&gt;" style="text;strokeColor=default;fillColor=none;align=left;verticalAlign=middle;spacingLeft=4;spacingRight=4;overflow=hidden;points=[[0,0.5],[1,0.5]];portConstraint=eastwest;rotatable=0;whiteSpace=wrap;html=1;rounded=1;" parent="vmZU5TFpBcDoDS9-gK7y-5" vertex="1">
          <mxGeometry y="120" width="190" height="100" as="geometry" />
        </mxCell>
        <mxCell id="vmZU5TFpBcDoDS9-gK7y-42" style="edgeStyle=orthogonalEdgeStyle;rounded=1;orthogonalLoop=1;jettySize=auto;html=1;entryX=0.105;entryY=0.013;entryDx=0;entryDy=0;entryPerimeter=0;" parent="1" source="vmZU5TFpBcDoDS9-gK7y-3" target="vmZU5TFpBcDoDS9-gK7y-5" edge="1">
          <mxGeometry relative="1" as="geometry">
            <Array as="points">
              <mxPoint x="910" y="-200" />
            </Array>
            <mxPoint x="960" y="270" as="targetPoint" />
          </mxGeometry>
        </mxCell>
        <mxCell id="vmZU5TFpBcDoDS9-gK7y-43" value="&lt;span style=&quot;font-size: 13px;&quot;&gt;Запрос на обновление ПО&amp;nbsp;&lt;/span&gt;&lt;div&gt;&lt;span style=&quot;font-size: 13px;&quot;&gt;и/или оборудования&lt;/span&gt;&lt;/div&gt;" style="edgeLabel;html=1;align=center;verticalAlign=middle;resizable=0;points=[];rounded=1;" parent="vmZU5TFpBcDoDS9-gK7y-42" vertex="1" connectable="0">
          <mxGeometry x="0.0229" y="3" relative="1" as="geometry">
            <mxPoint x="-3" y="141" as="offset" />
          </mxGeometry>
        </mxCell>
        <mxCell id="vmZU5TFpBcDoDS9-gK7y-49" value="&lt;font style=&quot;font-size: 15px;&quot;&gt;Закупка требуемого&amp;nbsp;&lt;/font&gt;&lt;span style=&quot;font-size: 15px;&quot;&gt;ПОиО&lt;/span&gt;" style="swimlane;fontStyle=0;childLayout=stackLayout;horizontal=1;startSize=50;horizontalStack=0;resizeParent=1;resizeParentMax=0;resizeLast=0;collapsible=1;marginBottom=0;whiteSpace=wrap;html=1;rounded=1;" parent="1" vertex="1">
          <mxGeometry x="490" y="280" width="190" height="220" as="geometry">
            <mxRectangle x="240" y="60" width="210" height="50" as="alternateBounds" />
          </mxGeometry>
        </mxCell>
        <mxCell id="vmZU5TFpBcDoDS9-gK7y-50" value="&lt;div style=&quot;text-align: center;&quot;&gt;&lt;span style=&quot;font-size: 15px; background-color: initial;&quot;&gt;И: &lt;/span&gt;&lt;span style=&quot;background-color: initial; font-size: 14px; text-wrap-mode: nowrap;&quot;&gt;директор,&lt;/span&gt;&lt;/div&gt;&lt;div style=&quot;text-align: center;&quot;&gt;&lt;span style=&quot;background-color: initial; font-size: 14px; text-wrap-mode: nowrap;&quot;&gt;поставщики&lt;/span&gt;&lt;/div&gt;" style="text;strokeColor=default;fillColor=none;align=left;verticalAlign=middle;spacingLeft=4;spacingRight=4;overflow=hidden;points=[[0,0.5],[1,0.5]];portConstraint=eastwest;rotatable=0;whiteSpace=wrap;html=1;rounded=1;" parent="vmZU5TFpBcDoDS9-gK7y-49" vertex="1">
          <mxGeometry y="50" width="190" height="70" as="geometry" />
        </mxCell>
        <mxCell id="vmZU5TFpBcDoDS9-gK7y-51" value="&lt;p&gt;&lt;font style=&quot;font-size: 15px;&quot; face=&quot;Helvetica&quot;&gt;СД: текстовые редакторы, договор&lt;/font&gt;&lt;/p&gt;" style="text;strokeColor=default;fillColor=none;align=left;verticalAlign=middle;spacingLeft=4;spacingRight=4;overflow=hidden;points=[[0,0.5],[1,0.5]];portConstraint=eastwest;rotatable=0;whiteSpace=wrap;html=1;rounded=1;" parent="vmZU5TFpBcDoDS9-gK7y-49" vertex="1">
          <mxGeometry y="120" width="190" height="100" as="geometry" />
        </mxCell>
        <mxCell id="vmZU5TFpBcDoDS9-gK7y-58" style="edgeStyle=orthogonalEdgeStyle;rounded=1;orthogonalLoop=1;jettySize=auto;html=1;exitX=1;exitY=1;exitDx=0;exitDy=0;exitPerimeter=0;entryX=0;entryY=0.407;entryDx=0;entryDy=0;entryPerimeter=0;" parent="1" source="vmZU5TFpBcDoDS9-gK7y-2" target="vmZU5TFpBcDoDS9-gK7y-51" edge="1">
          <mxGeometry relative="1" as="geometry">
            <Array as="points">
              <mxPoint x="170" y="280" />
              <mxPoint x="170" y="441" />
            </Array>
          </mxGeometry>
        </mxCell>
        <mxCell id="vmZU5TFpBcDoDS9-gK7y-59" value="&lt;span style=&quot;font-size: 13px;&quot;&gt;ПО&amp;nbsp;&lt;/span&gt;&lt;span style=&quot;font-size: 13px;&quot;&gt;и/или&lt;/span&gt;&lt;div&gt;&lt;span style=&quot;font-size: 13px;&quot;&gt;оборудование&lt;/span&gt;&lt;/div&gt;" style="edgeLabel;html=1;align=center;verticalAlign=middle;resizable=0;points=[];rounded=1;" parent="vmZU5TFpBcDoDS9-gK7y-58" vertex="1" connectable="0">
          <mxGeometry x="0.1054" y="-3" relative="1" as="geometry">
            <mxPoint x="100" y="-4" as="offset" />
          </mxGeometry>
        </mxCell>
        <mxCell id="vmZU5TFpBcDoDS9-gK7y-60" style="edgeStyle=orthogonalEdgeStyle;rounded=1;orthogonalLoop=1;jettySize=auto;html=1;exitX=0.316;exitY=0;exitDx=0;exitDy=0;entryX=1;entryY=0.3333333333333333;entryDx=0;entryDy=0;entryPerimeter=0;exitPerimeter=0;" parent="1" source="vmZU5TFpBcDoDS9-gK7y-49" target="vmZU5TFpBcDoDS9-gK7y-2" edge="1">
          <mxGeometry relative="1" as="geometry">
            <Array as="points">
              <mxPoint x="550" y="200" />
            </Array>
          </mxGeometry>
        </mxCell>
        <mxCell id="vmZU5TFpBcDoDS9-gK7y-65" value="&lt;span style=&quot;font-size: 13px;&quot;&gt;Оплата&lt;/span&gt;" style="edgeLabel;html=1;align=center;verticalAlign=middle;resizable=0;points=[];rounded=1;" parent="vmZU5TFpBcDoDS9-gK7y-60" vertex="1" connectable="0">
          <mxGeometry x="0.3446" y="1" relative="1" as="geometry">
            <mxPoint as="offset" />
          </mxGeometry>
        </mxCell>
        <mxCell id="vmZU5TFpBcDoDS9-gK7y-66" value="&lt;span style=&quot;font-size: 15px;&quot;&gt;Установка нового ПОиО&lt;/span&gt;" style="swimlane;fontStyle=0;childLayout=stackLayout;horizontal=1;startSize=50;horizontalStack=0;resizeParent=1;resizeParentMax=0;resizeLast=0;collapsible=1;marginBottom=0;whiteSpace=wrap;html=1;rounded=1;" parent="1" vertex="1">
          <mxGeometry x="320" y="-70" width="190" height="220" as="geometry">
            <mxRectangle x="240" y="60" width="210" height="50" as="alternateBounds" />
          </mxGeometry>
        </mxCell>
        <mxCell id="vmZU5TFpBcDoDS9-gK7y-67" value="&lt;div style=&quot;text-align: center;&quot;&gt;&lt;span style=&quot;font-size: 15px; background-color: initial;&quot;&gt;И:&amp;nbsp;&lt;/span&gt;&lt;span style=&quot;background-color: initial; font-size: 14px; text-wrap-mode: nowrap;&quot;&gt;технический отдел&lt;/span&gt;&lt;/div&gt;" style="text;strokeColor=default;fillColor=none;align=left;verticalAlign=middle;spacingLeft=4;spacingRight=4;overflow=hidden;points=[[0,0.5],[1,0.5]];portConstraint=eastwest;rotatable=0;whiteSpace=wrap;html=1;rounded=1;" parent="vmZU5TFpBcDoDS9-gK7y-66" vertex="1">
          <mxGeometry y="50" width="190" height="70" as="geometry" />
        </mxCell>
        <mxCell id="vmZU5TFpBcDoDS9-gK7y-68" value="&lt;p&gt;&lt;font style=&quot;font-size: 15px;&quot; face=&quot;Helvetica&quot;&gt;СД: ПОиО&lt;/font&gt;&lt;/p&gt;" style="text;strokeColor=default;fillColor=none;align=left;verticalAlign=middle;spacingLeft=4;spacingRight=4;overflow=hidden;points=[[0,0.5],[1,0.5]];portConstraint=eastwest;rotatable=0;whiteSpace=wrap;html=1;rounded=1;" parent="vmZU5TFpBcDoDS9-gK7y-66" vertex="1">
          <mxGeometry y="120" width="190" height="100" as="geometry" />
        </mxCell>
        <mxCell id="vmZU5TFpBcDoDS9-gK7y-71" style="edgeStyle=orthogonalEdgeStyle;rounded=1;orthogonalLoop=1;jettySize=auto;html=1;entryX=0;entryY=0.3333333333333333;entryDx=0;entryDy=0;entryPerimeter=0;" parent="1" source="vmZU5TFpBcDoDS9-gK7y-67" target="vmZU5TFpBcDoDS9-gK7y-3" edge="1">
          <mxGeometry relative="1" as="geometry">
            <Array as="points">
              <mxPoint x="560" y="15" />
              <mxPoint x="560" y="-200" />
            </Array>
          </mxGeometry>
        </mxCell>
        <mxCell id="vmZU5TFpBcDoDS9-gK7y-72" value="&lt;span style=&quot;font-size: 13px;&quot;&gt;Отчёт об успешном обновлении&lt;/span&gt;&lt;div&gt;&lt;span style=&quot;font-size: 13px;&quot;&gt;ПО&amp;nbsp;&lt;/span&gt;&lt;span style=&quot;font-size: 13px;&quot;&gt;и/или оборудования&lt;/span&gt;&lt;/div&gt;" style="edgeLabel;html=1;align=center;verticalAlign=middle;resizable=0;points=[];rounded=1;" parent="vmZU5TFpBcDoDS9-gK7y-71" vertex="1" connectable="0">
          <mxGeometry x="0.1922" y="2" relative="1" as="geometry">
            <mxPoint x="-38" y="4" as="offset" />
          </mxGeometry>
        </mxCell>
        <mxCell id="AqR9OljEHRIVbK4yme_a-6" style="edgeStyle=orthogonalEdgeStyle;rounded=1;orthogonalLoop=1;jettySize=auto;html=1;exitX=0;exitY=0.857;exitDx=0;exitDy=0;exitPerimeter=0;entryX=1.012;entryY=0.771;entryDx=0;entryDy=0;entryPerimeter=0;" edge="1" parent="1" source="vmZU5TFpBcDoDS9-gK7y-6" target="vmZU5TFpBcDoDS9-gK7y-50">
          <mxGeometry relative="1" as="geometry">
            <mxPoint x="830" y="50" as="sourcePoint" />
            <Array as="points">
              <mxPoint x="760" y="390" />
              <mxPoint x="760" y="384" />
            </Array>
          </mxGeometry>
        </mxCell>
        <mxCell id="AqR9OljEHRIVbK4yme_a-7" value="&lt;span style=&quot;font-size: 15px; text-wrap-mode: wrap;&quot;&gt;Договор на закупку ПОиО&lt;/span&gt;" style="edgeLabel;html=1;align=center;verticalAlign=middle;resizable=0;points=[];rounded=1;" vertex="1" connectable="0" parent="AqR9OljEHRIVbK4yme_a-6">
          <mxGeometry x="0.1139" y="-2" relative="1" as="geometry">
            <mxPoint x="-11" y="2" as="offset" />
          </mxGeometry>
        </mxCell>
      </root>
    </mxGraphModel>
  </diagram>
</mxfile>
